<svg width="25" height="32" viewBox="0 0 25 32" fill="none" xmlns="http://www.w3.org/2000/svg">
<path d="M24.9985 18.5547C24.9985 25.5676 19.4039 31.25 12.4992 31.25C5.59462 31.25 0 25.5676 0 18.5547C0 12.207 4.58506 6.9458 10.5763 6.01196V3.90625H8.8937C8.49709 3.90625 8.17259 3.57666 8.17259 3.17383V0.732422C8.17259 0.32959 8.49709 0 8.8937 0H16.1048C16.5014 0 16.8259 0.32959 16.8259 0.732422V3.17383C16.8259 3.57666 16.5014 3.90625 16.1048 3.90625H14.4222V6.01196C16.6757 6.36597 18.7308 7.33032 20.4134 8.73413L22.066 7.05566C22.3484 6.7688 22.8051 6.7688 23.0876 7.05566L24.7882 8.78296C25.0706 9.06982 25.0706 9.53369 24.7882 9.82056L23.0215 11.615L22.9854 11.6516C24.2594 13.6292 24.9985 16.0034 24.9985 18.5547ZM14.4222 20.752V11.5051C14.4222 11.1023 14.0977 10.7727 13.7011 10.7727H11.2974C10.9008 10.7727 10.5763 11.1023 10.5763 11.5051V20.752C10.5763 21.1548 10.9008 21.4844 11.2974 21.4844H13.7011C14.0977 21.4844 14.4222 21.1548 14.4222 20.752Z" fill="black"/>
</svg>
