<svg width="25" height="32" viewBox="0 0 25 32" fill="none" xmlns="http://www.w3.org/2000/svg">
<path d="M14.0625 1.45634C14.0625 0.00370096 12.0671 -0.543784 11.1882 0.660439C3.125 11.7096 14.5833 12.2071 14.5833 17.5782C14.5833 19.7528 12.6882 21.5125 10.3613 21.4838C8.07161 21.4563 6.25 19.6668 6.25 17.5202V12.3011C6.25 10.9766 4.52669 10.3339 3.55273 11.294C1.8099 13.0103 0 15.9504 0 19.5313C0 25.9931 5.60742 31.25 12.5 31.25C19.3926 31.25 25 25.9931 25 19.5313C25 9.13761 14.0625 7.7515 14.0625 1.45634V1.45634Z" fill="black"/>
</svg>
